<?xml version="1.0" encoding="UTF-8"?>
<!DOCTYPE svg PUBLIC "-//W3C//DTD SVG 1.1//EN" "http://www.w3.org/Graphics/SVG/1.1/DTD/svg11.dtd">
<!-- Creator: CorelDRAW (OEM Version) -->
<svg xmlns="http://www.w3.org/2000/svg" xml:space="preserve" width="210mm" height="297mm" version="1.1" style="shape-rendering:geometricPrecision; text-rendering:geometricPrecision; image-rendering:optimizeQuality; fill-rule:evenodd; clip-rule:evenodd"
viewBox="0 0 21000 29700"
 xmlns:xlink="http://www.w3.org/1999/xlink"
 xmlns:xodm="http://www.corel.com/coreldraw/odm/2003">
 <defs>
  <style type="text/css">
   <![CDATA[
    .fil0 {fill:#FEFEFE;fill-rule:nonzero}
   ]]>
  </style>
 </defs>
 <g id="Layer_x0020_1">
  <metadata id="CorelCorpID_0Corel-Layer"/>
  <g id="_3097229568432">
   <path class="fil0" d="M12350.65 11845.42c-11.66,26.65 -26.88,49.59 -45.25,68.2 -18.06,18.3 -38.88,31.63 -61.95,39.65 -14.03,4.94 -28.16,7.45 -42.02,7.45l0 0c-3.68,-0.01 -7.38,-0.18 -11.08,-0.53l2.48 -418.43c22.36,-0.55 42.75,3.64 60.99,12.44 22.82,11.02 42.63,27 58.84,47.49 16.59,21.06 29.65,45.52 38.82,72.7 9.26,27.53 14.53,55.95 15.65,84.48 0.52,31.23 -5.03,60.35 -16.48,86.55zm-162.86 -524.34c7.82,-9.65 17.34,-15.8 29.05,-18.78 14.58,-3.82 29.44,-4.06 44.29,-0.76 15.13,3.38 28.28,9.82 40.17,19.67 10.63,8.87 17.28,19.44 20.27,32.26 0.22,18.58 -3.87,34.04 -12.5,47.22 -9.15,14.04 -20.55,24.59 -34.82,32.25 -14.77,7.88 -30.05,12.21 -46.74,13.24 -12.4,0.79 -24.11,-0.86 -35.01,-4.94l-4.71 -120.16zm248.16 339.59c-8.37,-29.19 -19.58,-56.06 -33.35,-79.87 -13.87,-23.98 -30.26,-44.98 -48.67,-62.42 -9.97,-9.48 -20.41,-17.86 -31.24,-25.08 3.86,-2.45 7.65,-5.05 11.38,-7.79 12.91,-9.6 24.4,-21.45 34.13,-35.21 9.62,-13.54 17.21,-29.5 22.61,-47.51 5.33,-18.2 7.02,-38.69 5.04,-60.92l-0.16 -1.21c-5.32,-32.73 -17.94,-59.07 -37.52,-78.31 -19.16,-18.77 -41.48,-31.51 -66.26,-37.85 -24.2,-6.28 -49.35,-7.3 -74.63,-3.02 -15.12,2.56 -29.16,6.75 -41.98,12.53l-1.82 -20.56 -72.96 4.89 0.11 16.09c0.56,80.83 1.17,156.51 1.8,224.96 0.6,65.16 1,122.06 1.34,173.83 0.27,50.73 0.59,95.28 0.88,133.78 0.28,37.13 0.43,72.15 0.43,104.1l0 180.75 85.18 0 0 -13.82c5.81,0.38 11.54,0.56 17.16,0.56 29.01,0 56.32,-4.97 81.19,-14.8 33.94,-13.49 63.05,-33.86 86.48,-60.51 23.06,-26.15 41.33,-57.79 54.31,-94.07 12.75,-35.74 19.85,-73.74 21.1,-112.94l0.02 -0.59 -0.02 -0.59c-1.25,-33.57 -6.15,-65.35 -14.55,-94.42z"/>
   <polygon class="fil0" points="12726.68,11212.76 12641.89,11212.76 12573.18,11382.08 12486.71,11205.86 12412.58,11232.75 12537.06,11495.76 12539.81,12056.33 12630.57,12056.33 12619.56,11486.9 "/>
   <path class="fil0" d="M13176.03 11845.47c-11.46,26.4 -26.66,49.33 -45.14,68.13 -18.11,18.31 -38.94,31.65 -61.96,39.66 -14.04,4.95 -28.19,7.46 -42.06,7.46l0 0c-3.69,-0.01 -7.4,-0.18 -11.11,-0.53l2.54 -418.43c22.33,-0.55 42.74,3.64 60.95,12.45 23.05,11.1 42.32,26.65 58.86,47.46 16.63,21.16 29.69,45.63 38.81,72.7 9.24,27.57 14.5,56 15.63,84.5 0.53,31.24 -5.02,60.36 -16.52,86.6zm-162.83 -524.39c7.82,-9.64 17.35,-15.8 29.08,-18.78 14.58,-3.81 29.42,-4.06 44.27,-0.76 14.94,3.34 28.47,9.96 40.18,19.67 10.66,8.88 17.29,19.45 20.25,32.27 0.27,18.47 -3.81,33.94 -12.43,47.18 -9.23,14.1 -20.65,24.66 -34.89,32.28 -14.78,7.88 -30.06,12.21 -46.75,13.24 -12.38,0.78 -24.06,-0.86 -34.95,-4.94l-4.76 -120.16zm248.19 339.6c-8.31,-29.06 -19.52,-55.93 -33.34,-79.9 -13.91,-23.97 -30.28,-44.97 -48.64,-62.41 -9.98,-9.46 -20.43,-17.84 -31.29,-25.07 3.86,-2.45 7.64,-5.04 11.35,-7.78 12.94,-9.6 24.44,-21.47 34.16,-35.24 9.64,-13.61 17.24,-29.56 22.62,-47.5 5.28,-18.07 6.97,-38.55 5.03,-60.87l-0.15 -1.22c-5.24,-32.65 -17.84,-58.99 -37.51,-78.36 -19.21,-18.76 -41.53,-31.49 -66.29,-37.83 -24.21,-6.28 -49.36,-7.31 -74.68,-3.02 -15.1,2.57 -29.11,6.77 -41.91,12.54l-1.82 -20.57 -72.96 4.89 0.11 16.09c0.52,75.89 1.09,155.68 1.79,224.94l0.05 5.9c0.53,63.79 0.98,118.88 1.26,167.96 0.31,50.72 0.61,95.27 0.92,133.77 0.28,36.2 0.43,71.22 0.43,104.1l0 180.75 85.15 0 0 -13.82c5.82,0.37 11.57,0.56 17.19,0.56 29,0 56.29,-4.97 81.15,-14.8 33.93,-13.47 63.04,-33.83 86.51,-60.51 23.03,-26.08 41.29,-57.73 54.27,-94.06 12.77,-35.74 19.89,-73.73 21.18,-112.93l0.02 -0.61 -0.03 -0.6c-1.28,-33.54 -6.19,-65.31 -14.57,-94.4z"/>
   <path class="fil0" d="M13535.34 11748.89c-3.51,39.33 -8.54,74.94 -14.93,105.87 -6.22,30.32 -14.02,55.27 -23.21,74.17 -6.53,13.45 -13.71,21.94 -20.4,24.19 -9.29,-1.23 -18.19,-8.75 -26.53,-22.46 -11.29,-18.41 -21.01,-43.04 -28.91,-73.24 -8.2,-31.12 -14.5,-66.84 -18.75,-106.21 -4.38,-39.67 -6.93,-80.63 -7.55,-121.73 -0.56,-41.15 0.94,-81.94 4.44,-121.25 3.46,-38.96 9.02,-74.06 16.53,-104.29 7.27,-29.11 16.46,-52.32 27.34,-69.07 12.25,-19.03 22.72,-19.03 26.15,-19.03 0.29,0 0.58,0.01 0.87,0.02l0.63 0.01c3.08,0 12.44,0 23.63,19.59 9.88,17.26 18.27,40.67 24.96,69.65 6.92,29.39 12.21,64.09 15.74,103.17 3.54,38.77 5.34,79.17 5.34,120.05 0,40.95 -1.8,81.5 -5.35,120.56zm78.26 -273.93c-6.39,-48.86 -15.64,-92.57 -27.49,-129.92 -12.14,-38.3 -27,-69.47 -44.15,-92.64 -19.52,-26.4 -43.18,-38.91 -69.88,-36.85 -29.9,0.21 -56.02,13.39 -77.66,39.17 -19.68,23.46 -36.22,54.78 -49.16,93.13 -12.53,37.26 -21.97,80.21 -28.05,127.64 -6,46.68 -9.04,95.54 -9.04,145.22 0,49.65 3.36,99.03 9.98,146.76 6.56,47.86 16.41,92.19 29.26,131.79 13.01,39.84 29.49,73.64 48.96,100.46 21.02,28.92 46.68,46.11 76.27,51.1l1.85 0.31 1.88 -0.1c29.14,-1.51 54.13,-16.56 74.28,-44.76 18.07,-25.4 33.05,-58.43 44.52,-98.17 11.36,-39.36 19.38,-84.22 23.82,-133.28 4.55,-48.74 6.41,-99.33 5.52,-150.4 -0.91,-50.62 -4.58,-100.9 -10.91,-149.46z"/>
   <path class="fil0" d="M13890.17 11748.89c-3.5,39.19 -8.54,74.81 -14.95,105.85 -6.35,30.71 -14.15,55.66 -23.17,74.16 -6.58,13.49 -13.79,21.98 -20.5,24.23 -9.22,-1.24 -18.13,-8.78 -26.5,-22.45 -11.27,-18.42 -20.97,-43.06 -28.83,-73.27 -8.12,-30.73 -14.44,-66.46 -18.8,-106.21 -4.46,-40.08 -6.99,-81.03 -7.52,-121.74 -0.59,-40.83 0.88,-81.63 4.37,-121.22 3.5,-39.08 9.08,-74.18 16.57,-104.3 7.27,-29.08 16.44,-52.3 27.32,-69.1 12.18,-19 22.72,-19 26.18,-19 0.28,0 0.58,0.01 0.86,0.02l0.63 0.01c3.06,0 12.38,0 23.63,19.59 9.82,17.15 18.22,40.57 24.95,69.66 6.94,29.39 12.24,64.09 15.77,103.14 3.5,38.89 5.28,79.29 5.28,120.07 0,40.85 -1.78,81.41 -5.29,120.56zm83.69 25.91c4.53,-49.21 6.33,-99.8 5.37,-150.35 -0.83,-50.41 -4.46,-100.7 -10.81,-149.5 -6.41,-48.87 -15.65,-92.58 -27.47,-129.92 -12.15,-38.26 -26.99,-69.43 -44.16,-92.66 -19.6,-26.39 -43.3,-38.87 -69.91,-36.82 -29.97,0.21 -56.1,13.39 -77.66,39.18 -19.66,23.45 -36.2,54.77 -49.19,93.15 -12.5,37.37 -21.91,80.31 -28,127.61 -6.04,46.91 -9.11,95.77 -9.11,145.22 0,49.62 3.4,99.01 10.08,146.76 6.6,48.1 16.43,92.44 29.24,131.78 13,39.85 29.46,73.65 48.94,100.5 21.09,28.9 46.74,46.08 76.22,51.07l1.86 0.31 1.88 -0.1c29.22,-1.51 54.23,-16.56 74.35,-44.77 18.05,-25.4 33.02,-58.43 44.5,-98.16 11.28,-39.05 19.31,-83.9 23.87,-133.3z"/>
   <polygon class="fil0" points="12699.97,11604.72 12848.01,11604.72 12848.01,11552.31 12699.97,11552.31 "/>
   <path class="fil0" d="M12015.9 12151.31l2048.2 0 0 -1025.92 -2048.2 0 0 1025.92zm2105.17 56.97l-2162.14 0 0 -1139.86 2162.14 0 0 1139.86z"/>
   <path class="fil0" d="M13979.48 12086.79c-19.67,0 -35.68,-16.02 -35.68,-35.71 0,-19.63 16.01,-35.6 35.68,-35.6 19.68,0 35.68,15.97 35.68,35.6 0,19.69 -16,35.71 -35.68,35.71zm0 -79.86c-24.38,0 -44.22,19.81 -44.22,44.15 0,24.4 19.84,44.25 44.22,44.25 24.39,0 44.23,-19.85 44.23,-44.25 0,-24.34 -19.84,-44.15 -44.23,-44.15z"/>
   <path class="fil0" d="M13979.27 12048.35l-13.42 0 0 -15.59 14.88 0c3.53,0 6.09,0.76 7.69,2.24 1.61,1.34 2.48,3.17 2.48,5.38 0,1.57 -0.43,3 -1.25,4.25 -0.86,1.32 -2.1,2.28 -3.74,2.83 -1.57,0.57 -3.83,0.89 -6.64,0.89zm8.53 7.28c-0.88,-0.81 -2.15,-1.57 -3.81,-2.38 4.51,-0.64 7.87,-2.12 10.07,-4.39 2.18,-2.26 3.22,-5.14 3.22,-8.48 0,-2.58 -0.67,-4.91 -1.92,-7.08 -1.37,-2.14 -3.09,-3.67 -5.2,-4.48 -2.28,-0.85 -5.43,-1.25 -9.63,-1.25l-20.94 0 0 47.15 6.26 0 0 -20.97 7.23 0c1.63,0 2.74,0.12 3.46,0.2 0.99,0.33 1.95,0.73 2.84,1.29 0.96,0.65 2,1.65 3.2,3.1 1.19,1.59 2.67,3.73 4.49,6.57l6.24 9.81 7.82 0 -8.2 -12.87c-1.62,-2.43 -3.35,-4.55 -5.13,-6.22z"/>
  </g>
 </g>
</svg>
