<?xml version="1.0" encoding="UTF-8"?>
<!DOCTYPE svg PUBLIC "-//W3C//DTD SVG 1.1//EN" "http://www.w3.org/Graphics/SVG/1.1/DTD/svg11.dtd">
<!-- Creator: CorelDRAW (OEM Version) -->
<svg xmlns="http://www.w3.org/2000/svg" xml:space="preserve" width="35.517mm" height="4.8788mm" version="1.1" style="shape-rendering:geometricPrecision; text-rendering:geometricPrecision; image-rendering:optimizeQuality; fill-rule:evenodd; clip-rule:evenodd"
viewBox="0 0 3551.7 487.88"
 xmlns:xlink="http://www.w3.org/1999/xlink"
 xmlns:xodm="http://www.corel.com/coreldraw/odm/2003">
 <defs>
  <style type="text/css">
   <![CDATA[
    .fil0 {fill:#FEFEFE;fill-rule:nonzero}
   ]]>
  </style>
 </defs>
 <g id="Layer_x0020_1">
  <metadata id="CorelCorpID_0Corel-Layer"/>
  <g id="Logo_x0020_SEVN.eps">
   <path class="fil0" d="M2484.1 7.24c-28.45,0 -46.68,2.47 -68.9,24.6 -2.59,2.55 -5,5.23 -7.34,7.98l-0.07 -0.06 -229.85 277.53 -0.17 -0.2c0,0 -17.61,19.92 -45.24,52.3 -2.37,3.05 -5.06,5.8 -8.15,8.16 -4.86,3.89 -10.61,6.58 -17.26,8.09 -4.61,1.49 -9.46,2.23 -14.59,2.23 -16.41,0 -28.93,-5.48 -37.71,-16.29l-0.06 0.08 -34.6 -40.06 0.15 -0.13 -239.44 -291.71 -0.08 0.06c-2.33,-2.75 -4.75,-5.43 -7.33,-7.98 -22.23,-22.13 -47.55,-24.6 -75.99,-24.6l-47.35 0 0 82.13 42.4 0c4.79,0.31 9.33,1.06 13.63,2.25 5.97,1.8 11.35,4.48 16.13,8.08 1.76,1.44 3.37,3.05 4.88,4.76l234.14 286.03c0,0 25.73,33.81 43.31,53.08l-0.03 0.02c22.23,26.4 51.67,39.6 88.34,39.6 30.69,0 57.8,-10.92 81.32,-32.75 3.64,-3.41 6.98,-7.03 10.16,-10.77l0.08 0.08c18.91,-20.61 40.32,-48.56 40.32,-48.56l234.18 -286.73c1.51,-1.71 3.11,-3.32 4.88,-4.76 4.77,-3.6 10.15,-6.28 16.12,-8.08 4.31,-1.19 8.85,-1.94 13.63,-2.25l47 0 0 -82.13 -56.51 0z"/>
   <path class="fil0" d="M735.11 89.87l-602.77 0c-5.72,0.28 -11.16,1 -16.3,2.14 -7.15,1.72 -13.59,4.29 -19.31,7.72 -14.87,9.73 -22.31,25.6 -22.31,47.63 0,5.72 0.72,11.15 2.15,16.3 1.42,7.43 4,13.87 7.72,19.31 9.72,14.87 25.59,22.3 47.62,22.3l476.21 0c34.32,0 64.64,10.59 90.95,31.75 32.6,25.74 48.91,61.92 48.91,108.54 0,34.04 -10.44,64.35 -31.32,90.96 -25.74,32.59 -61.92,48.9 -108.54,48.9l-603.2 0 0 -82.37 603.2 0c22.02,0 37.89,-7.43 47.62,-22.31 3.72,-5.43 6.44,-11.87 8.15,-19.3 1.14,-5.16 1.72,-10.44 1.72,-15.88 0,-22.3 -7.44,-38.32 -22.31,-48.05 -5.43,-3.43 -11.72,-6 -18.88,-7.72 -5.43,-1.14 -10.87,-1.86 -16.3,-2.15l-476.21 0c-46.33,0 -82.52,-16.29 -108.54,-48.9 -20.88,-26.32 -31.32,-56.63 -31.32,-90.95 0,-46.63 16.3,-82.8 48.91,-108.55 26.59,-21.16 56.92,-31.74 90.95,-31.74l603.2 0 0 82.37z"/>
   <path class="fil0" d="M893.48 290.65l0 65.63c0,12.88 4.58,23.89 13.73,33.04 9.15,9.15 20.16,13.73 33.03,13.73l653.39 0 0 82.37 -653.39 0c-35.75,0 -66.22,-12.58 -91.38,-37.75 -25.17,-25.17 -37.75,-55.63 -37.75,-91.39l0 -219.65c0,-35.47 12.58,-65.78 37.75,-90.95 25.16,-25.46 55.63,-38.18 91.38,-38.18l653.39 0 0 82.37 -653.39 0c-12.87,0 -23.88,4.58 -33.03,13.73 -9.15,9.15 -13.73,20.16 -13.73,33.03l0 71.65 700.15 0 0 82.37 -700.15 0z"/>
   <path class="fil0" d="M3388.76 10.5l0 438.02 0 -0.85c0,4 -0.43,7.72 -1.29,11.16 -2.28,9.15 -7.14,16.58 -14.58,22.3 -7.44,5.72 -15.88,8.59 -25.32,8.59 -7.43,0 -14.58,-2.01 -21.44,-6.01l1.28 0.85 -654.25 -371.09 0 371.09 -82.37 0 0 -441.03c0,-15.73 6.72,-27.6 20.16,-35.61 13.73,-8 27.46,-8.15 41.19,-0.42l654.25 370.67 0 -367.67 82.37 0z"/>
   <path class="fil0" d="M3491.32 96.42c-23.31,0 -42.27,-18.98 -42.27,-42.3 0,-23.26 18.96,-42.19 42.27,-42.19 23.31,0 42.27,18.93 42.27,42.19 0,23.32 -18.96,42.3 -42.27,42.3zm0 -94.61c-28.89,0 -52.39,23.47 -52.39,52.31 0,28.91 23.5,52.43 52.39,52.43 28.9,0 52.4,-23.52 52.4,-52.43 0,-28.84 -23.5,-52.31 -52.4,-52.31z"/>
   <path class="fil0" d="M3491.08 50.88l-15.91 0 0 -18.47 17.64 0c4.17,0 7.21,0.9 9.11,2.65 1.9,1.6 2.94,3.76 2.94,6.38 0,1.86 -0.52,3.55 -1.49,5.03 -1.01,1.57 -2.49,2.7 -4.43,3.36 -1.86,0.68 -4.53,1.05 -7.86,1.05zm10.1 8.63c-1.04,-0.96 -2.55,-1.86 -4.52,-2.82 5.35,-0.76 9.33,-2.51 11.94,-5.2 2.59,-2.68 3.82,-6.09 3.82,-10.05 0,-3.06 -0.79,-5.81 -2.29,-8.39 -1.61,-2.54 -3.66,-4.35 -6.16,-5.31 -2.7,-1.01 -6.44,-1.49 -11.41,-1.49l-24.81 0 0 55.87 7.42 0 0 -24.84 8.57 0c1.94,0 3.24,0.13 4.1,0.24 1.17,0.39 2.31,0.85 3.37,1.53 1.13,0.77 2.36,1.95 3.79,3.67 1.41,1.88 3.16,4.41 5.31,7.78l7.4 11.62 9.26 0 -9.72 -15.24c-1.91,-2.89 -3.96,-5.4 -6.07,-7.37z"/>
  </g>
 </g>
</svg>
